Coordinates
version=1
nRows=13
nColumns=38
inDegrees=no

Units are S.I. units (second, meters, Newtons, ...)
If the header above contains a line with 'inDegrees', this indicates whether rotational values are in degrees (yes) or radians (no).

endheader
time	pelvis_tilt	pelvis_list	pelvis_rotation	pelvis_tx	pelvis_ty	pelvis_tz	hip_flexion_r	hip_adduction_r	hip_rotation_r	knee_angle_r	ankle_angle_r	subtalar_angle_r	mtp_angle_r	hip_flexion_l	hip_adduction_l	hip_rotation_l	knee_angle_l	ankle_angle_l	subtalar_angle_l	mtp_angle_l	lumbar_extension	lumbar_bending	lumbar_rotation	arm_flex_r	arm_add_r	arm_rot_r	elbow_flex_r	pro_sup_r	wrist_flex_r	wrist_dev_r	arm_flex_l	arm_add_l	arm_rot_l	elbow_flex_l	pro_sup_l	wrist_flex_l	wrist_dev_l
1.65	-0.452616	1.43879	-0.982873	0.919661	-0.700665	1.08024	0.302303	-0.0172117	0.0487542	0.977366	-0.358753	0	0	-0.143871	-0.045123	-0.230318	0.305349	-0.204284	0	0	-0.377084	0.0807313	0.147274	-0.0362084	-0.724186	0.513175	0.98351	1.00768	0	0	0.167457	-0.353397	0.710089	0.920581	0.913784	0	0
1.66	-0.454118	1.44181	-0.97905	0.921962	-0.708766	1.07921	0.314804	-0.0160619	0.0514995	0.952375	-0.344479	0	0	-0.148235	-0.0434938	-0.230725	0.308695	-0.199195	0	0	-0.375173	0.0799888	0.145048	-0.0356979	-0.724862	0.513128	0.983116	1.00738	0	0	0.169151	-0.352685	0.711257	0.920193	0.913043	0	0
1.67	-0.454493	1.44481	-0.977099	0.924146	-0.716887	1.07811	0.326695	-0.0146975	0.0551723	0.926546	-0.331967	0	0	-0.152791	-0.0417427	-0.232222	0.312072	-0.19424	0	0	-0.373552	0.0789436	0.143524	-0.0354045	-0.725429	0.512891	0.98271	1.00794	0	0	0.170505	-0.351926	0.711691	0.919995	0.913108	0	0
1.68	-0.457432	1.44856	-0.97286	0.926258	-0.725129	1.07686	0.33891	-0.0136341	0.0589045	0.899848	-0.320469	0	0	-0.156878	-0.0399657	-0.233401	0.315492	-0.189207	0	0	-0.37103	0.0776771	0.142292	-0.035746	-0.725166	0.512103	0.981633	1.00743	0	0	0.17132	-0.351068	0.711433	0.919546	0.914454	0	0
1.69	-0.463167	1.45319	-0.965855	0.928285	-0.733534	1.07545	0.351585	-0.0129829	0.0620517	0.872825	-0.30931	0	0	-0.160343	-0.0379836	-0.233973	0.318323	-0.184466	0	0	-0.367253	0.0759932	0.141118	-0.0362459	-0.72423	0.511583	0.979843	1.00681	0	0	0.17166	-0.35025	0.71081	0.918564	0.917246	0	0
1.7	-0.472182	1.45858	-0.955607	0.930255	-0.742074	1.07391	0.364823	-0.0129651	0.0642609	0.845427	-0.298962	0	0	-0.163046	-0.0358326	-0.23425	0.320969	-0.179506	0	0	-0.362424	0.0740101	0.139763	-0.0368764	-0.722755	0.511468	0.97775	1.0061	0	0	0.171053	-0.349122	0.708995	0.917052	0.919844	0	0
1.71	-0.481523	1.46418	-0.945527	0.932164	-0.750656	1.07229	0.378515	-0.0137461	0.0658967	0.818511	-0.289385	0	0	-0.165756	-0.0334092	-0.234864	0.32346	-0.174589	0	0	-0.357507	0.0717897	0.138669	-0.037548	-0.721521	0.511816	0.976089	1.00589	0	0	0.169465	-0.347357	0.705254	0.915282	0.921746	0	0
1.72	-0.492481	1.46989	-0.933534	0.934061	-0.759376	1.0706	0.391206	-0.0147363	0.0659008	0.791446	-0.277858	0	0	-0.168525	-0.0311082	-0.235176	0.325709	-0.169966	0	0	-0.352136	0.069739	0.137358	-0.0391686	-0.719888	0.511331	0.974496	1.00512	0	0	0.167666	-0.345649	0.701424	0.913052	0.925438	0	0
1.73	-0.500016	1.47518	-0.92523	0.935914	-0.768179	1.06893	0.402114	-0.0157288	0.065214	0.764224	-0.264504	0	0	-0.172191	-0.02863	-0.236112	0.327657	-0.166094	0	0	-0.347253	0.067682	0.136515	-0.04177	-0.718703	0.510076	0.974073	1.00416	0	0	0.166095	-0.344139	0.698081	0.910801	0.930321	0	0
1.74	-0.511428	1.48078	-0.912724	0.937711	-0.777101	1.06716	0.412508	-0.0166738	0.0624218	0.737721	-0.249485	0	0	-0.175445	-0.0262195	-0.236435	0.329526	-0.162133	0	0	-0.341803	0.0656966	0.135629	-0.0451444	-0.717298	0.50819	0.973929	1.00352	0	0	0.164208	-0.3429	0.69461	0.908878	0.935155	0	0
1.75	-0.522658	1.48633	-0.90066	0.939431	-0.786045	1.06532	0.422346	-0.0177545	0.0585431	0.712302	-0.234528	0	0	-0.179012	-0.0236616	-0.236796	0.331057	-0.158291	0	0	-0.336594	0.0636973	0.135065	-0.0491445	-0.716122	0.505779	0.974525	1.00295	0	0	0.162101	-0.341996	0.690874	0.907875	0.939925	0	0
1.76	-0.552107	1.493	-0.871216	0.940716	-0.795035	1.06327	0.434553	-0.0154217	0.0634034	0.690155	-0.225774	0	0	-0.180303	-0.0219728	-0.237466	0.333543	-0.154143	0	0	-0.329607	0.0612982	0.135283	-0.0526994	-0.714007	0.504133	0.974196	1.00348	0	0	0.160155	-0.342784	0.68852	0.907601	0.945989	0	0
1.77	-0.559138	1.49853	-0.861957	0.942758	-0.804268	1.06139	0.443044	-0.0224111	0.0504393	0.663288	-0.209758	0	0	-0.184262	-0.0187094	-0.236804	0.334993	-0.150889	0	0	-0.324036	0.0595281	0.133123	-0.0574345	-0.712778	0.501787	0.974912	1.00376	0	0	0.156807	-0.341417	0.683485	0.906985	0.94936	0	0
